<?xml version="1.0" encoding="utf-8"?>
<!-- Generator: Adobe Illustrator 23.0.6, SVG Export Plug-In . SVG Version: 6.00 Build 0)  -->
<svg version="1.1" id="Layer_1" xmlns="http://www.w3.org/2000/svg" xmlns:xlink="http://www.w3.org/1999/xlink" x="0px" y="0px"
	 viewBox="0 0 250 73" style="enable-background:new 0 0 250 73;" xml:space="preserve">
<path style="fill:#13404B;" d="M87.47,68.75c-0.24,0-0.44-0.2-0.44-0.44V3.12c0-0.24,0.2-0.44,0.44-0.44s0.44,0.2,0.44,0.44v65.19
	C87.91,68.56,87.71,68.75,87.47,68.75z"/>
<g>
	<path style="fill:#078C45;" d="M104.7,17.25h-4.6l-0.76,2.2H96.9l4.16-11.57h2.7l4.15,11.57h-2.45L104.7,17.25z M104.07,15.4
		l-1.67-4.83l-1.67,4.83H104.07z"/>
	<path style="fill:#078C45;" d="M111.78,7.2v12.25h-2.32V7.2H111.78z"/>
	<path style="fill:#078C45;" d="M116.38,7.2v12.25h-2.32V7.2H116.38z"/>
	<path style="fill:#078C45;" d="M118.82,8.8c-0.27-0.26-0.41-0.58-0.41-0.97s0.14-0.71,0.41-0.97c0.27-0.26,0.61-0.39,1.02-0.39
		s0.75,0.13,1.02,0.39c0.27,0.26,0.41,0.58,0.41,0.97s-0.13,0.71-0.41,0.97s-0.61,0.39-1.02,0.39S119.09,9.06,118.82,8.8z
		 M120.98,10.28v9.17h-2.32v-9.17H120.98z"/>
	<path style="fill:#078C45;" d="M123.23,12.37c0.37-0.72,0.87-1.27,1.51-1.66s1.34-0.58,2.13-0.58c0.68,0,1.28,0.14,1.8,0.41
		c0.51,0.28,0.92,0.62,1.23,1.04v-1.31h2.33v9.17h-2.33v-1.34c-0.3,0.43-0.71,0.79-1.23,1.07c-0.52,0.28-1.13,0.42-1.81,0.42
		c-0.77,0-1.48-0.2-2.11-0.6c-0.63-0.4-1.14-0.96-1.51-1.68c-0.37-0.72-0.55-1.55-0.55-2.49C122.67,13.91,122.86,13.08,123.23,12.37
		z M129.56,13.42c-0.22-0.4-0.52-0.71-0.89-0.93c-0.38-0.22-0.78-0.32-1.21-0.32c-0.43,0-0.83,0.11-1.19,0.31s-0.66,0.52-0.89,0.92
		c-0.23,0.4-0.34,0.88-0.34,1.43s0.11,1.03,0.34,1.45c0.23,0.41,0.52,0.73,0.89,0.95c0.37,0.22,0.76,0.33,1.18,0.33
		c0.43,0,0.83-0.11,1.21-0.32s0.67-0.52,0.89-0.93c0.22-0.4,0.33-0.89,0.33-1.45C129.89,14.3,129.78,13.82,129.56,13.42z"/>
	<path style="fill:#078C45;" d="M142.22,11.18c0.67,0.69,1.01,1.65,1.01,2.89v5.38h-2.32v-5.07c0-0.73-0.18-1.29-0.55-1.68
		c-0.36-0.39-0.86-0.59-1.49-0.59c-0.64,0-1.15,0.2-1.51,0.59c-0.37,0.39-0.55,0.95-0.55,1.68v5.07h-2.32v-9.17h2.32v1.14
		c0.31-0.4,0.7-0.71,1.18-0.94c0.48-0.23,1.01-0.34,1.58-0.34C140.67,10.15,141.55,10.49,142.22,11.18z"/>
	<path style="fill:#078C45;" d="M145.42,12.38c0.39-0.71,0.92-1.26,1.61-1.66s1.47-0.59,2.35-0.59c1.14,0,2.08,0.28,2.82,0.85
		c0.75,0.57,1.24,1.37,1.5,2.39h-2.5c-0.13-0.4-0.36-0.71-0.67-0.94s-0.7-0.34-1.17-0.34c-0.66,0-1.19,0.24-1.57,0.72
		c-0.39,0.48-0.58,1.16-0.58,2.04c0,0.87,0.19,1.55,0.58,2.03c0.39,0.48,0.91,0.72,1.57,0.72c0.94,0,1.55-0.42,1.84-1.26h2.5
		c-0.25,0.99-0.76,1.78-1.51,2.37c-0.75,0.59-1.69,0.88-2.81,0.88c-0.88,0-1.67-0.2-2.35-0.59s-1.22-0.94-1.61-1.66
		c-0.39-0.71-0.58-1.54-0.58-2.49S145.03,13.09,145.42,12.38z"/>
	<path style="fill:#078C45;" d="M163.86,15.56h-6.7c0.05,0.66,0.29,1.18,0.7,1.56c0.41,0.38,0.91,0.56,1.51,0.56
		c0.86,0,1.47-0.37,1.84-1.11h2.5c-0.26,0.88-0.77,1.61-1.52,2.18c-0.75,0.57-1.67,0.85-2.76,0.85c-0.88,0-1.67-0.2-2.38-0.59
		c-0.7-0.39-1.25-0.95-1.64-1.66c-0.39-0.72-0.59-1.54-0.59-2.48c0-0.95,0.19-1.78,0.58-2.5c0.39-0.72,0.93-1.27,1.62-1.66
		s1.5-0.58,2.4-0.58c0.87,0,1.65,0.19,2.34,0.56c0.69,0.38,1.22,0.91,1.61,1.6s0.57,1.48,0.57,2.38
		C163.93,15,163.9,15.3,163.86,15.56z M161.53,14.01c-0.01-0.6-0.23-1.07-0.65-1.43c-0.42-0.36-0.93-0.54-1.54-0.54
		c-0.57,0-1.06,0.17-1.45,0.52s-0.63,0.83-0.72,1.45H161.53z"/>
	<path style="fill:#078C45;" d="M173.76,12.18h-1.61v7.27h-2.35v-7.27h-1.04v-1.9h1.04V9.82c0-1.13,0.32-1.95,0.96-2.48
		s1.61-0.78,2.9-0.75v1.95c-0.56-0.01-0.96,0.08-1.18,0.28s-0.33,0.56-0.33,1.08v0.38h1.61V12.18z"/>
	<path style="fill:#078C45;" d="M176.96,19.01c-0.71-0.39-1.26-0.95-1.66-1.66c-0.4-0.72-0.6-1.54-0.6-2.48s0.21-1.77,0.62-2.48
		c0.41-0.72,0.98-1.27,1.7-1.66c0.72-0.39,1.52-0.59,2.4-0.59c0.88,0,1.68,0.2,2.4,0.59c0.72,0.39,1.28,0.95,1.7,1.66
		c0.41,0.72,0.62,1.55,0.62,2.48s-0.21,1.77-0.64,2.48c-0.42,0.72-1,1.27-1.72,1.66s-1.53,0.59-2.42,0.59
		C178.46,19.6,177.66,19.41,176.96,19.01z M180.52,17.28c0.37-0.2,0.67-0.51,0.89-0.92c0.22-0.41,0.33-0.9,0.33-1.49
		c0-0.87-0.23-1.54-0.69-2.01c-0.46-0.47-1.02-0.7-1.68-0.7s-1.22,0.23-1.66,0.7c-0.45,0.47-0.67,1.14-0.67,2.01
		c0,0.87,0.22,1.54,0.65,2.01c0.44,0.47,0.99,0.7,1.65,0.7C179.76,17.58,180.15,17.48,180.52,17.28z"/>
	<path style="fill:#078C45;" d="M189.31,10.56c0.48-0.28,1.03-0.41,1.65-0.41v2.43h-0.61c-0.73,0-1.28,0.17-1.65,0.51
		c-0.37,0.34-0.55,0.94-0.55,1.79v4.57h-2.32v-9.17h2.32v1.42C188.44,11.22,188.83,10.84,189.31,10.56z"/>
	<path style="fill:#078C45;" d="M97.82,30.47c0.51-0.9,1.21-1.6,2.1-2.1c0.89-0.5,1.88-0.75,2.99-0.75c1.29,0,2.42,0.33,3.39,0.99
		c0.97,0.66,1.65,1.58,2.04,2.75h-2.67c-0.26-0.55-0.64-0.97-1.12-1.24s-1.03-0.41-1.66-0.41c-0.67,0-1.27,0.16-1.8,0.47
		c-0.52,0.31-0.93,0.76-1.23,1.33s-0.44,1.25-0.44,2.02c0,0.76,0.15,1.43,0.44,2.01s0.7,1.03,1.23,1.34
		c0.52,0.31,1.12,0.47,1.8,0.47c0.63,0,1.18-0.14,1.66-0.42s0.85-0.7,1.12-1.25h2.67c-0.39,1.18-1.06,2.1-2.03,2.76
		c-0.97,0.66-2.1,0.98-3.4,0.98c-1.1,0-2.1-0.25-2.99-0.75c-0.89-0.5-1.59-1.2-2.1-2.09s-0.77-1.91-0.77-3.05
		S97.3,31.37,97.82,30.47z"/>
	<path style="fill:#078C45;" d="M112.64,27.07v12.25h-2.32V27.07H112.64z"/>
	<path style="fill:#078C45;" d="M115.08,28.66c-0.27-0.26-0.41-0.58-0.41-0.97s0.13-0.71,0.41-0.97c0.27-0.26,0.61-0.39,1.02-0.39
		c0.41,0,0.75,0.13,1.02,0.39c0.27,0.26,0.41,0.58,0.41,0.97s-0.13,0.71-0.41,0.97c-0.27,0.26-0.61,0.39-1.02,0.39
		C115.69,29.05,115.35,28.92,115.08,28.66z M117.24,30.15v9.17h-2.32v-9.17H117.24z"/>
	<path style="fill:#078C45;" d="M133.64,31.05c0.69,0.69,1.04,1.65,1.04,2.89v5.38h-2.32v-5.07c0-0.72-0.18-1.27-0.55-1.65
		s-0.86-0.57-1.49-0.57s-1.13,0.19-1.5,0.57s-0.55,0.93-0.55,1.65v5.07h-2.32v-5.07c0-0.72-0.18-1.27-0.55-1.65
		c-0.36-0.38-0.86-0.57-1.49-0.57c-0.64,0-1.15,0.19-1.51,0.57c-0.37,0.38-0.55,0.93-0.55,1.65v5.07h-2.32v-9.17h2.32v1.11
		c0.3-0.39,0.68-0.69,1.15-0.91c0.47-0.22,0.99-0.33,1.55-0.33c0.72,0,1.36,0.15,1.92,0.46c0.56,0.3,1,0.74,1.31,1.3
		c0.3-0.53,0.73-0.95,1.3-1.27c0.57-0.32,1.18-0.48,1.85-0.48C132.04,30.01,132.95,30.36,133.64,31.05z"/>
	<path style="fill:#078C45;" d="M136.83,32.23c0.37-0.72,0.87-1.27,1.51-1.66s1.34-0.58,2.13-0.58c0.68,0,1.28,0.14,1.8,0.41
		c0.51,0.28,0.92,0.62,1.23,1.04v-1.31h2.33v9.17h-2.33v-1.34c-0.3,0.43-0.71,0.79-1.23,1.07c-0.52,0.28-1.13,0.42-1.81,0.42
		c-0.77,0-1.48-0.2-2.11-0.6c-0.63-0.4-1.14-0.96-1.51-1.68c-0.37-0.72-0.55-1.55-0.55-2.49C136.28,33.77,136.47,32.95,136.83,32.23
		z M143.17,33.28c-0.22-0.4-0.52-0.71-0.89-0.93c-0.38-0.22-0.78-0.32-1.21-0.32c-0.43,0-0.83,0.11-1.19,0.31s-0.66,0.52-0.89,0.92
		c-0.23,0.4-0.34,0.88-0.34,1.43s0.11,1.03,0.34,1.45c0.23,0.41,0.52,0.73,0.89,0.95c0.37,0.22,0.76,0.33,1.18,0.33
		c0.43,0,0.83-0.11,1.21-0.32s0.67-0.52,0.89-0.93c0.22-0.4,0.33-0.89,0.33-1.45C143.5,34.17,143.39,33.69,143.17,33.28z"/>
	<path style="fill:#078C45;" d="M150.8,32.05v4.44c0,0.31,0.07,0.53,0.22,0.67c0.15,0.14,0.4,0.21,0.75,0.21h1.08v1.95h-1.46
		c-1.95,0-2.93-0.95-2.93-2.85v-4.42h-1.09v-1.9h1.09v-2.27h2.33v2.27h2.05v1.9H150.8z"/>
	<path style="fill:#078C45;" d="M162.98,35.43h-6.7c0.05,0.66,0.29,1.18,0.7,1.56c0.41,0.38,0.91,0.56,1.51,0.56
		c0.86,0,1.47-0.37,1.84-1.11h2.5c-0.26,0.88-0.77,1.61-1.52,2.18c-0.75,0.57-1.67,0.85-2.76,0.85c-0.88,0-1.67-0.2-2.38-0.59
		c-0.7-0.39-1.25-0.95-1.64-1.66c-0.39-0.72-0.59-1.54-0.59-2.48c0-0.95,0.19-1.78,0.58-2.5c0.39-0.72,0.93-1.27,1.62-1.66
		s1.5-0.58,2.4-0.58c0.87,0,1.65,0.19,2.34,0.56c0.69,0.38,1.22,0.91,1.61,1.6s0.57,1.48,0.57,2.38
		C163.05,34.86,163.03,35.16,162.98,35.43z M160.65,33.87c-0.01-0.6-0.23-1.07-0.65-1.43c-0.42-0.36-0.93-0.54-1.54-0.54
		c-0.57,0-1.06,0.17-1.45,0.52s-0.63,0.83-0.72,1.45H160.65z"/>
	<path style="fill:#078C45;" d="M175.42,27.76v8.11c0,1.13-0.33,2-0.98,2.62s-1.52,0.94-2.62,0.94c-1.1,0-2-0.32-2.67-0.96
		s-1.02-1.53-1.02-2.68h2.32c0.01,0.5,0.13,0.88,0.36,1.16c0.23,0.28,0.55,0.41,0.99,0.41c0.42,0,0.74-0.13,0.96-0.4
		c0.22-0.27,0.33-0.63,0.33-1.09v-8.11H175.42z"/>
	<path style="fill:#078C45;" d="M186.77,30.15v9.17h-2.33v-1.16c-0.3,0.4-0.69,0.71-1.17,0.94c-0.48,0.23-1,0.34-1.56,0.34
		c-0.72,0-1.35-0.15-1.9-0.46c-0.55-0.3-0.99-0.75-1.3-1.34s-0.47-1.29-0.47-2.11v-5.38h2.32v5.05c0,0.73,0.18,1.29,0.55,1.68
		c0.36,0.39,0.86,0.59,1.49,0.59c0.64,0,1.14-0.2,1.51-0.59c0.36-0.39,0.55-0.95,0.55-1.68v-5.05H186.77z"/>
	<path style="fill:#078C45;" d="M190.54,39.06c-0.6-0.27-1.07-0.64-1.42-1.1s-0.54-0.98-0.57-1.54h2.33
		c0.04,0.35,0.22,0.65,0.52,0.88c0.3,0.23,0.68,0.35,1.13,0.35c0.44,0,0.79-0.09,1.04-0.27c0.25-0.18,0.37-0.4,0.37-0.68
		c0-0.3-0.15-0.52-0.46-0.67s-0.79-0.31-1.45-0.49c-0.68-0.17-1.24-0.34-1.68-0.51c-0.44-0.18-0.81-0.45-1.13-0.81
		s-0.47-0.86-0.47-1.47c0-0.51,0.15-0.97,0.44-1.39c0.29-0.42,0.71-0.75,1.26-0.99c0.55-0.24,1.19-0.36,1.93-0.36
		c1.09,0,1.96,0.27,2.62,0.82c0.65,0.55,1.01,1.28,1.08,2.21h-2.22c-0.03-0.36-0.19-0.65-0.46-0.87c-0.27-0.22-0.63-0.32-1.08-0.32
		c-0.42,0-0.74,0.08-0.97,0.23c-0.23,0.15-0.34,0.37-0.34,0.65c0,0.31,0.15,0.54,0.46,0.7c0.31,0.16,0.79,0.32,1.44,0.49
		c0.66,0.17,1.21,0.34,1.64,0.51c0.43,0.18,0.8,0.45,1.12,0.82s0.48,0.86,0.49,1.46c0,0.53-0.15,1-0.44,1.42
		c-0.29,0.42-0.71,0.75-1.26,0.98c-0.55,0.24-1.18,0.36-1.91,0.36C191.81,39.47,191.14,39.33,190.54,39.06z"/>
	<path style="fill:#078C45;" d="M200.78,32.05v4.44c0,0.31,0.07,0.53,0.22,0.67c0.15,0.14,0.4,0.21,0.75,0.21h1.08v1.95h-1.46
		c-1.95,0-2.93-0.95-2.93-2.85v-4.42h-1.09v-1.9h1.09v-2.27h2.33v2.27h2.05v1.9H200.78z"/>
	<path style="fill:#078C45;" d="M204.66,28.66c-0.27-0.26-0.41-0.58-0.41-0.97s0.14-0.71,0.41-0.97c0.27-0.26,0.61-0.39,1.02-0.39
		s0.75,0.13,1.02,0.39c0.27,0.26,0.41,0.58,0.41,0.97s-0.13,0.71-0.41,0.97s-0.61,0.39-1.02,0.39S204.93,28.92,204.66,28.66z
		 M206.82,30.15v9.17h-2.32v-9.17H206.82z"/>
	<path style="fill:#078C45;" d="M209.09,32.24c0.39-0.71,0.92-1.26,1.61-1.66s1.47-0.59,2.35-0.59c1.14,0,2.08,0.28,2.82,0.85
		c0.75,0.57,1.24,1.37,1.5,2.39h-2.5c-0.13-0.4-0.36-0.71-0.67-0.94s-0.7-0.34-1.17-0.34c-0.66,0-1.19,0.24-1.57,0.72
		c-0.39,0.48-0.58,1.16-0.58,2.04c0,0.87,0.19,1.55,0.58,2.03c0.39,0.48,0.91,0.72,1.57,0.72c0.94,0,1.55-0.42,1.84-1.26h2.5
		c-0.25,0.99-0.76,1.78-1.51,2.37c-0.75,0.59-1.69,0.88-2.81,0.88c-0.88,0-1.67-0.2-2.35-0.59s-1.22-0.94-1.61-1.66
		c-0.39-0.71-0.58-1.54-0.58-2.49S208.7,32.95,209.09,32.24z"/>
	<path style="fill:#078C45;" d="M227.53,35.43h-6.7c0.05,0.66,0.29,1.18,0.7,1.56c0.41,0.38,0.91,0.56,1.51,0.56
		c0.86,0,1.47-0.37,1.84-1.11h2.5c-0.26,0.88-0.77,1.61-1.52,2.18c-0.75,0.57-1.67,0.85-2.76,0.85c-0.88,0-1.67-0.2-2.38-0.59
		c-0.7-0.39-1.25-0.95-1.64-1.66c-0.39-0.72-0.59-1.54-0.59-2.48c0-0.95,0.19-1.78,0.58-2.5c0.39-0.72,0.93-1.27,1.62-1.66
		s1.5-0.58,2.4-0.58c0.87,0,1.65,0.19,2.34,0.56c0.69,0.38,1.22,0.91,1.61,1.6s0.57,1.48,0.57,2.38
		C227.59,34.86,227.57,35.16,227.53,35.43z M225.19,33.87c-0.01-0.6-0.23-1.07-0.65-1.43c-0.42-0.36-0.93-0.54-1.54-0.54
		c-0.57,0-1.06,0.17-1.45,0.52s-0.63,0.83-0.72,1.45H225.19z"/>
	<path style="fill:#078C45;" d="M242.11,39.32l-1.26-1.24c-1.07,0.96-2.38,1.44-3.92,1.44c-0.85,0-1.6-0.15-2.24-0.44
		c-0.65-0.29-1.15-0.71-1.5-1.24c-0.35-0.54-0.53-1.16-0.53-1.86c0-0.76,0.22-1.45,0.65-2.05c0.43-0.61,1.07-1.1,1.9-1.47
		c-0.3-0.36-0.51-0.71-0.65-1.05c-0.13-0.34-0.2-0.7-0.2-1.08c0-0.53,0.14-1.01,0.41-1.43s0.67-0.76,1.18-1
		c0.51-0.24,1.11-0.36,1.8-0.36c0.7,0,1.29,0.13,1.79,0.4c0.5,0.27,0.87,0.62,1.11,1.06c0.24,0.44,0.35,0.93,0.31,1.47h-2.25
		c0.01-0.36-0.08-0.64-0.27-0.84c-0.19-0.19-0.44-0.29-0.76-0.29c-0.31,0-0.57,0.09-0.77,0.27s-0.31,0.42-0.31,0.7
		c0,0.28,0.08,0.55,0.25,0.82c0.17,0.27,0.44,0.6,0.81,1l2.91,2.88c0.02-0.02,0.04-0.04,0.05-0.07s0.02-0.04,0.03-0.07l0.94-1.57
		h2.42l-1.16,2.04c-0.22,0.43-0.46,0.84-0.71,1.23l2.8,2.76H242.11z M239.4,36.64l-2.85-2.81c-1.07,0.47-1.61,1.15-1.61,2.02
		c0,0.5,0.19,0.91,0.56,1.25c0.38,0.34,0.87,0.5,1.49,0.5C237.9,37.6,238.7,37.28,239.4,36.64z"/>
	<path style="fill:#078C45;" d="M97.82,50.33c0.51-0.9,1.21-1.6,2.1-2.1c0.89-0.5,1.88-0.75,2.99-0.75c1.29,0,2.42,0.33,3.39,0.99
		c0.97,0.66,1.65,1.58,2.04,2.75h-2.67c-0.26-0.55-0.64-0.97-1.12-1.24s-1.03-0.41-1.66-0.41c-0.67,0-1.27,0.16-1.8,0.47
		c-0.52,0.31-0.93,0.76-1.23,1.33s-0.44,1.25-0.44,2.02c0,0.76,0.15,1.43,0.44,2.01s0.7,1.03,1.23,1.34
		c0.52,0.31,1.12,0.47,1.8,0.47c0.63,0,1.18-0.14,1.66-0.42s0.85-0.7,1.12-1.25h2.67c-0.39,1.18-1.06,2.1-2.03,2.76
		c-0.97,0.66-2.1,0.98-3.4,0.98c-1.1,0-2.1-0.25-2.99-0.75c-0.89-0.5-1.59-1.2-2.1-2.09s-0.77-1.91-0.77-3.05
		S97.3,51.23,97.82,50.33z"/>
	<path style="fill:#078C45;" d="M112.64,46.93v12.25h-2.32V46.93H112.64z"/>
	<path style="fill:#078C45;" d="M123.38,55.29h-6.7c0.06,0.66,0.29,1.18,0.7,1.56c0.41,0.38,0.91,0.56,1.51,0.56
		c0.86,0,1.47-0.37,1.84-1.11h2.5c-0.26,0.88-0.77,1.61-1.52,2.18c-0.75,0.57-1.67,0.85-2.77,0.85c-0.88,0-1.67-0.2-2.38-0.59
		s-1.25-0.95-1.64-1.66c-0.39-0.72-0.59-1.54-0.59-2.48c0-0.95,0.19-1.78,0.58-2.5c0.39-0.72,0.93-1.27,1.62-1.66
		c0.7-0.39,1.5-0.58,2.4-0.58c0.87,0,1.65,0.19,2.34,0.56c0.69,0.38,1.22,0.91,1.61,1.6s0.57,1.48,0.57,2.38
		C123.45,54.73,123.43,55.03,123.38,55.29z M121.05,53.74c-0.01-0.6-0.23-1.07-0.64-1.43c-0.42-0.36-0.93-0.54-1.54-0.54
		c-0.57,0-1.06,0.17-1.45,0.52c-0.39,0.35-0.63,0.83-0.72,1.45H121.05z"/>
	<path style="fill:#078C45;" d="M125.1,52.1c0.37-0.72,0.87-1.27,1.51-1.66s1.34-0.58,2.13-0.58c0.68,0,1.28,0.14,1.8,0.41
		c0.51,0.28,0.92,0.62,1.23,1.04v-1.31h2.33v9.17h-2.33v-1.34c-0.3,0.43-0.71,0.79-1.23,1.07c-0.52,0.28-1.13,0.42-1.81,0.42
		c-0.77,0-1.48-0.2-2.11-0.6c-0.63-0.4-1.14-0.96-1.51-1.68c-0.37-0.72-0.55-1.55-0.55-2.49C124.54,53.64,124.73,52.81,125.1,52.1z
		 M131.43,53.15c-0.22-0.4-0.52-0.71-0.89-0.93c-0.38-0.22-0.78-0.32-1.21-0.32c-0.43,0-0.83,0.11-1.19,0.31s-0.66,0.52-0.89,0.92
		c-0.23,0.4-0.34,0.88-0.34,1.43s0.11,1.03,0.34,1.45c0.23,0.41,0.52,0.73,0.89,0.95c0.37,0.22,0.76,0.33,1.18,0.33
		c0.43,0,0.83-0.11,1.21-0.32s0.67-0.52,0.89-0.93c0.22-0.4,0.33-0.89,0.33-1.45C131.76,54.03,131.65,53.55,131.43,53.15z"/>
	<path style="fill:#078C45;" d="M144.09,50.91c0.67,0.69,1.01,1.65,1.01,2.89v5.38h-2.32v-5.07c0-0.73-0.18-1.29-0.55-1.68
		c-0.36-0.39-0.86-0.59-1.49-0.59c-0.64,0-1.15,0.2-1.51,0.59c-0.37,0.39-0.55,0.95-0.55,1.68v5.07h-2.32v-9.17h2.32v1.14
		c0.31-0.4,0.7-0.71,1.18-0.94c0.48-0.23,1.01-0.34,1.58-0.34C142.54,49.88,143.42,50.22,144.09,50.91z"/>
	<path style="fill:#078C45;" d="M153.56,49.5v2.9h3.89v1.84h-3.89v3.06h4.39v1.89h-6.7V47.61h6.7v1.89H153.56z"/>
	<path style="fill:#078C45;" d="M167.78,50.91c0.67,0.69,1.01,1.65,1.01,2.89v5.38h-2.32v-5.07c0-0.73-0.18-1.29-0.55-1.68
		c-0.36-0.39-0.86-0.59-1.49-0.59c-0.64,0-1.15,0.2-1.51,0.59c-0.37,0.39-0.55,0.95-0.55,1.68v5.07h-2.32v-9.17h2.32v1.14
		c0.31-0.4,0.7-0.71,1.18-0.94c0.48-0.23,1.01-0.34,1.58-0.34C166.23,49.88,167.11,50.22,167.78,50.91z"/>
	<path style="fill:#078C45;" d="M179.45,55.29h-6.7c0.05,0.66,0.29,1.18,0.7,1.56c0.41,0.38,0.91,0.56,1.51,0.56
		c0.86,0,1.47-0.37,1.84-1.11h2.5c-0.26,0.88-0.77,1.61-1.52,2.18c-0.75,0.57-1.67,0.85-2.76,0.85c-0.88,0-1.67-0.2-2.38-0.59
		c-0.7-0.39-1.25-0.95-1.64-1.66c-0.39-0.72-0.59-1.54-0.59-2.48c0-0.95,0.19-1.78,0.58-2.5c0.39-0.72,0.93-1.27,1.62-1.66
		s1.5-0.58,2.4-0.58c0.87,0,1.65,0.19,2.34,0.56c0.69,0.38,1.22,0.91,1.61,1.6s0.57,1.48,0.57,2.38
		C179.52,54.73,179.5,55.03,179.45,55.29z M177.12,53.74c-0.01-0.6-0.23-1.07-0.65-1.43c-0.42-0.36-0.93-0.54-1.54-0.54
		c-0.57,0-1.06,0.17-1.45,0.52s-0.63,0.83-0.72,1.45H177.12z"/>
	<path style="fill:#078C45;" d="M184.69,50.29c0.48-0.28,1.03-0.41,1.65-0.41v2.43h-0.61c-0.73,0-1.28,0.17-1.65,0.51
		c-0.37,0.34-0.55,0.94-0.55,1.79v4.57h-2.32v-9.17h2.32v1.42C183.82,50.95,184.21,50.57,184.69,50.29z"/>
	<path style="fill:#078C45;" d="M193.29,50.27c0.52,0.27,0.93,0.62,1.22,1.05v-1.31h2.33v9.24c0,0.85-0.17,1.61-0.51,2.28
		c-0.34,0.67-0.86,1.2-1.54,1.59c-0.68,0.39-1.51,0.59-2.48,0.59c-1.3,0-2.37-0.3-3.2-0.91c-0.83-0.61-1.31-1.44-1.42-2.48h2.3
		c0.12,0.42,0.38,0.75,0.79,1c0.4,0.25,0.89,0.37,1.46,0.37c0.67,0,1.22-0.2,1.64-0.6c0.42-0.4,0.63-1.01,0.63-1.83v-1.42
		c-0.3,0.43-0.71,0.79-1.23,1.08c-0.52,0.29-1.12,0.43-1.8,0.43c-0.77,0-1.48-0.2-2.12-0.6c-0.64-0.4-1.14-0.96-1.51-1.68
		c-0.37-0.72-0.55-1.55-0.55-2.49c0-0.93,0.19-1.75,0.55-2.47c0.37-0.72,0.87-1.27,1.51-1.66s1.34-0.58,2.13-0.58
		C192.17,49.86,192.78,50,193.29,50.27z M194.19,53.15c-0.22-0.4-0.52-0.71-0.89-0.93c-0.38-0.22-0.78-0.32-1.21-0.32
		c-0.43,0-0.83,0.11-1.19,0.31s-0.66,0.52-0.89,0.92c-0.23,0.4-0.34,0.88-0.34,1.43s0.11,1.03,0.34,1.45
		c0.23,0.41,0.52,0.73,0.89,0.95c0.37,0.22,0.76,0.33,1.18,0.33c0.43,0,0.83-0.11,1.21-0.32s0.67-0.52,0.89-0.93
		c0.22-0.4,0.33-0.89,0.33-1.45C194.52,54.03,194.41,53.55,194.19,53.15z"/>
	<path style="fill:#078C45;" d="M207.89,50.01l-5.68,13.51h-2.47l1.99-4.57l-3.67-8.94h2.6l2.37,6.41l2.4-6.41H207.89z"/>
</g>
<g>
	<g>
		<path style="fill:#078C45;" d="M66.95,47.85l-6.72,6.72l-7,5.6c-0.33,0.26-0.53,0.67-0.53,1.1v7.07H41.4V55.35
			c-0.01-3.08,1.21-6.02,3.39-8.19l0.67-0.66c2.27-2.27,5.39-3.49,8.6-3.39c0.44,0.01,0.87-0.18,1.14-0.53l5.88-7.22
			c0.88-1.07,2.46-1.24,3.53-0.36c0.94,0.77,1.2,2.09,0.62,3.15l-4.69,8.61c-0.37,0.68-0.12,1.54,0.56,1.92
			c0.69,0.37,1.55,0.12,1.92-0.56l4.69-8.61c1.41-2.58,0.46-5.83-2.13-7.24c-0.78-0.43-1.66-0.66-2.56-0.66
			c-0.15,0-0.3,0.01-0.45,0.02V21.29c0-1.32,1.07-2.39,2.39-2.39c1.18,0,2.18,0.86,2.36,2.03l2.29,14.87L66.95,47.85z"/>
		<path style="fill:#078C45;" d="M30.1,55.35v12.98H18.81v-7.07c0-0.43-0.19-0.83-0.53-1.11l-7-5.6l-6.72-6.72L1.88,35.8l2.3-14.87
			c0.2-1.31,1.41-2.2,2.72-1.99c1.17,0.18,2.03,1.18,2.03,2.36v10.34c-0.15-0.01-0.3-0.02-0.46-0.02c-2.95,0-5.33,2.39-5.33,5.34
			c0,0.89,0.22,1.77,0.65,2.55l4.7,8.61c0.37,0.68,1.23,0.94,1.92,0.56c0.68-0.38,0.94-1.24,0.56-1.92l-4.7-8.61
			c-0.66-1.21-0.22-2.74,1-3.4c1.06-0.58,2.38-0.32,3.15,0.62l5.89,7.22c0.28,0.35,0.7,0.54,1.14,0.53c3.21-0.11,6.32,1.11,8.6,3.39
			l0.66,0.66C28.89,49.33,30.12,52.28,30.1,55.35z"/>
	</g>
	<g>
		<circle style="fill:#13404B;" cx="44.03" cy="8.88" r="5.69"/>
		<g>
			<g>
				<g>
					<g>
						<path style="fill:#FFFFFF;" d="M40.98,9.03c0.4,0.34,0.86,0.73,1.74,0.72c0.88-0.01,1.33-0.4,1.73-0.74
							c0.38-0.33,0.7-0.61,1.38-0.61c0.68,0,1.01,0.27,1.39,0.6c0.11,0.09,0.28,0.08,0.37-0.03c0.09-0.11,0.08-0.28-0.03-0.37
							c-0.4-0.34-0.86-0.73-1.74-0.72c-0.88,0.01-1.33,0.4-1.73,0.74c-0.38,0.33-0.7,0.61-1.38,0.61c-0.68,0-1.01-0.27-1.39-0.6
							c-0.11-0.09-0.28-0.08-0.37,0.03C40.86,8.77,40.87,8.94,40.98,9.03z"/>
						<path style="fill:#FFFFFF;" d="M40.97,7.58c0.4,0.34,0.86,0.73,1.74,0.72c0.88-0.01,1.33-0.4,1.73-0.74
							c0.38-0.33,0.7-0.61,1.38-0.61c0.68,0,1.01,0.27,1.39,0.6c0.11,0.09,0.28,0.08,0.37-0.03c0.09-0.11,0.08-0.28-0.03-0.37
							c-0.4-0.34-0.86-0.73-1.74-0.72c-0.88,0.01-1.33,0.4-1.73,0.74c-0.38,0.33-0.7,0.61-1.38,0.61c-0.68,0-1.01-0.27-1.39-0.6
							c-0.11-0.09-0.28-0.08-0.37,0.03C40.85,7.32,40.86,7.49,40.97,7.58z"/>
						<path style="fill:#FFFFFF;" d="M47.58,10.03c-0.4-0.34-0.86-0.73-1.74-0.72c-0.88,0.01-1.33,0.4-1.73,0.74
							c-0.38,0.33-0.7,0.61-1.38,0.61c-0.68,0-1.01-0.27-1.39-0.6l0,0c-0.11-0.09-0.28-0.08-0.37,0.03
							c-0.09,0.11-0.08,0.28,0.03,0.37c0.4,0.34,0.86,0.73,1.74,0.72c0.88-0.01,1.33-0.4,1.73-0.74c0.38-0.33,0.7-0.61,1.38-0.61
							c0.68,0,1.01,0.27,1.39,0.6c0.11,0.09,0.28,0.08,0.37-0.03C47.7,10.29,47.69,10.13,47.58,10.03z"/>
					</g>
				</g>
			</g>
		</g>
	</g>
	<g>
		<circle style="fill:#13404B;" cx="27.65" cy="36.17" r="5.69"/>
		<g>
			<g>
				<circle style="fill:#FFFFFF;" cx="27.75" cy="36.3" r="1.91"/>
				<path style="fill:#FFFFFF;" d="M30.29,37.32l0.5,0.22c0.05,0.02,0.07,0.08,0.05,0.14c-0.02,0.05-0.08,0.07-0.14,0.05l-0.5-0.22
					c-0.05-0.02-0.07-0.08-0.05-0.14C30.18,37.32,30.24,37.29,30.29,37.32z"/>
				<path style="fill:#FFFFFF;" d="M29.3,38.43c0.05-0.03,0.11-0.02,0.14,0.02l0.32,0.44c0.03,0.05,0.02,0.11-0.02,0.14
					c-0.05,0.03-0.11,0.02-0.14-0.02l-0.32-0.44c-0.02-0.03-0.03-0.07-0.01-0.1C29.27,38.45,29.28,38.44,29.3,38.43z"/>
				<path style="fill:#FFFFFF;" d="M28.03,38.92c0.06-0.01,0.11,0.03,0.11,0.09l0.06,0.54c0.01,0.06-0.03,0.11-0.09,0.11
					c-0.06,0.01-0.11-0.03-0.11-0.09l-0.06-0.54c0-0.02,0-0.04,0.01-0.05C27.96,38.94,27.99,38.92,28.03,38.92z"/>
				<path style="fill:#FFFFFF;" d="M26.68,38.7c0.05,0.02,0.07,0.08,0.05,0.14l-0.22,0.5c-0.02,0.05-0.08,0.07-0.14,0.05
					c-0.05-0.02-0.07-0.08-0.05-0.14l0.22-0.5C26.57,38.7,26.63,38.68,26.68,38.7z"/>
				<path style="fill:#FFFFFF;" d="M25.04,38.14l0.44-0.32c0.05-0.03,0.11-0.02,0.14,0.02c0.03,0.05,0.02,0.11-0.02,0.14l-0.44,0.32
					c-0.05,0.03-0.11,0.02-0.14-0.02c-0.02-0.03-0.03-0.07-0.01-0.1C25.01,38.17,25.02,38.15,25.04,38.14z"/>
				<path style="fill:#FFFFFF;" d="M24.48,36.54l0.54-0.06c0.06-0.01,0.11,0.03,0.11,0.09c0.01,0.06-0.03,0.11-0.09,0.11l-0.54,0.06
					c-0.06,0.01-0.11-0.03-0.11-0.09c0-0.02,0-0.04,0.01-0.05C24.41,36.57,24.44,36.54,24.48,36.54z"/>
				<path style="fill:#FFFFFF;" d="M24.8,34.87l0.5,0.22c0.05,0.02,0.07,0.08,0.05,0.14s-0.08,0.07-0.14,0.05l-0.5-0.22
					c-0.05-0.02-0.07-0.08-0.05-0.14C24.68,34.87,24.74,34.85,24.8,34.87z"/>
				<path style="fill:#FFFFFF;" d="M25.76,33.56c0.05-0.03,0.11-0.02,0.14,0.02l0.32,0.44c0.03,0.05,0.02,0.11-0.02,0.14
					c-0.05,0.03-0.11,0.02-0.14-0.02l-0.32-0.44c-0.02-0.03-0.03-0.07-0.01-0.1C25.74,33.59,25.75,33.57,25.76,33.56z"/>
				<path style="fill:#FFFFFF;" d="M27.4,32.93c0.06-0.01,0.11,0.03,0.11,0.09l0.06,0.54c0.01,0.06-0.03,0.11-0.09,0.11
					c-0.06,0.01-0.11-0.03-0.11-0.09l-0.06-0.54c0-0.02,0-0.04,0.01-0.05C27.33,32.96,27.36,32.94,27.4,32.93z"/>
				<path style="fill:#FFFFFF;" d="M29.13,33.21c0.05,0.02,0.07,0.08,0.05,0.14l-0.22,0.5c-0.02,0.05-0.08,0.07-0.14,0.05
					c-0.05-0.02-0.07-0.08-0.05-0.14l0.22-0.5C29.02,33.21,29.08,33.18,29.13,33.21z"/>
				<path style="fill:#FFFFFF;" d="M29.9,34.61l0.44-0.32c0.05-0.03,0.11-0.02,0.14,0.02c0.03,0.05,0.02,0.11-0.02,0.14l-0.44,0.32
					c-0.05,0.03-0.11,0.02-0.14-0.02c-0.02-0.03-0.03-0.07-0.01-0.1C29.88,34.63,29.89,34.62,29.9,34.61z"/>
				<path style="fill:#FFFFFF;" d="M30.46,35.91l0.54-0.06c0.06-0.01,0.11,0.03,0.11,0.09c0.01,0.06-0.03,0.11-0.09,0.11l-0.54,0.06
					c-0.06,0.01-0.11-0.03-0.11-0.09c0-0.02,0-0.04,0.01-0.05C30.39,35.94,30.42,35.91,30.46,35.91z"/>
			</g>
			<path style="fill:#FFFFFF;" d="M28.53,34.55c-0.97-0.43-2.1,0-2.53,0.97c-0.03,0.06-0.05,0.13-0.07,0.19
				c0.48-0.84,1.53-1.19,2.43-0.79c0.9,0.4,1.34,1.42,1.04,2.34c0.03-0.06,0.07-0.12,0.09-0.18C29.93,36.11,29.5,34.98,28.53,34.55z
				"/>
		</g>
	</g>
	<g>
		<circle style="fill:#45AE49;" cx="26.94" cy="9.31" r="5.69"/>
		<g>
			<g>
				<path style="fill:#FFFFFF;" d="M28.13,8.71l-1.04-1.26C27.05,7.4,27,7.37,26.94,7.37s-0.11,0.03-0.15,0.07l-1.04,1.26
					c-0.23,0.28-0.35,0.62-0.35,0.98c0,0.85,0.69,1.55,1.55,1.55s1.55-0.69,1.55-1.55C28.49,9.33,28.36,8.98,28.13,8.71L28.13,8.71z
					 M27.5,9.59l-0.39,0.77c-0.03,0.07-0.1,0.11-0.17,0.11c-0.03,0-0.06-0.01-0.09-0.02c-0.1-0.05-0.13-0.16-0.09-0.26l0.25-0.49
					h-0.46c-0.07,0-0.13-0.03-0.16-0.09c-0.04-0.06-0.04-0.13-0.01-0.19l0.39-0.77c0.05-0.1,0.16-0.13,0.26-0.09
					s0.13,0.16,0.09,0.26l-0.25,0.49h0.46c0.07,0,0.13,0.03,0.16,0.09C27.53,9.45,27.53,9.53,27.5,9.59z"/>
				<path style="fill:#FFFFFF;" d="M24.14,10.07c0.1-0.02,0.17-0.12,0.15-0.23c-0.04-0.18-0.05-0.36-0.05-0.54
					c0-1.02,0.49-1.66,0.9-2.02c0.49-0.43,1.13-0.68,1.74-0.71l-0.08,0.08c-0.08,0.08-0.08,0.2,0,0.27
					c0.04,0.04,0.09,0.06,0.14,0.06c0.05,0,0.1-0.02,0.14-0.06l0.39-0.39c0.06-0.06,0.09-0.19,0-0.27l-0.39-0.39
					c-0.08-0.08-0.2-0.08-0.27,0c-0.08,0.08-0.08,0.2,0,0.27l0.04,0.04c-0.69,0.04-1.41,0.33-1.96,0.81
					c-0.32,0.28-0.57,0.61-0.75,0.98c-0.19,0.41-0.29,0.85-0.29,1.33c0,0.21,0.02,0.42,0.06,0.62c0.02,0.09,0.1,0.15,0.19,0.15
					C24.11,10.08,24.13,10.08,24.14,10.07L24.14,10.07z"/>
				<path style="fill:#FFFFFF;" d="M28.15,11.74c-0.38,0.19-0.78,0.28-1.21,0.28c-0.84,0-1.63-0.4-2.14-1.07l0.11,0.01
					c0.11,0.01,0.2-0.06,0.22-0.17c0.01-0.11-0.06-0.2-0.17-0.22l-0.53-0.07c-0.09-0.01-0.19,0.05-0.21,0.14l-0.14,0.53
					c-0.03,0.1,0.03,0.21,0.14,0.24c0.02,0,0.03,0.01,0.05,0.01c0.09,0,0.16-0.06,0.19-0.14l0.03-0.11
					c0.58,0.77,1.49,1.23,2.46,1.23c0.49,0,0.95-0.11,1.38-0.33c0.1-0.05,0.13-0.16,0.09-0.26S28.25,11.69,28.15,11.74L28.15,11.74z
					"/>
				<path style="fill:#FFFFFF;" d="M29.59,11.11l-0.15,0.02c0.38-0.52,0.59-1.16,0.59-1.82c0-0.61-0.18-1.21-0.52-1.72
					c-0.33-0.5-0.79-0.89-1.34-1.13c-0.1-0.04-0.21,0-0.25,0.1c-0.04,0.1,0,0.21,0.1,0.25c0.99,0.43,1.62,1.41,1.62,2.49
					c0,0.61-0.2,1.18-0.56,1.65l-0.03-0.17c-0.02-0.1-0.12-0.17-0.23-0.15c-0.1,0.02-0.17,0.12-0.15,0.23l0.1,0.56
					c0.02,0.1,0.11,0.17,0.21,0.16l0.65-0.08c0.11-0.01,0.18-0.11,0.17-0.22C29.79,11.17,29.7,11.09,29.59,11.11L29.59,11.11z"/>
			</g>
		</g>
	</g>
	<g>
		<circle style="fill:#45AE49;" cx="44.92" cy="36.43" r="5.69"/>
		<g>
			<g>
				<g>
					<path style="fill:#FFFFFF;" d="M46.46,35.99c-0.05,0.07-0.09,0.12-0.12,0.16c-0.04,0.04-0.06,0.07-0.07,0.08L46.2,36.3
						l-0.05,0.05H45.5c-0.04,0.09-0.12,0.16-0.17,0.21c-0.05,0.04-0.09,0.08-0.1,0.12c-0.01,0.05,0.02,0.12,0.08,0.19
						c0,0,0,0,0.01,0.01c0.04-0.1,0.12-0.14,0.16-0.16c0.17-0.06,0.36,0.07,0.46,0.15c0.1,0.08,0.33,0.22,0.56,0.29
						c0.07,0.02,0.13,0.03,0.19,0.04c0.07,0,0.13,0,0.19-0.02C46.86,36.74,46.72,36.33,46.46,35.99z"/>
				</g>
			</g>
			<g>
				<g>
					<path style="fill:#FFFFFF;" d="M44.99,39.1c-0.02-0.07-0.05-0.13-0.08-0.19c-0.03-0.05-0.06-0.1-0.09-0.13
						c-0.15-0.19-0.31-0.3-0.35-0.32c-0.12-0.03-0.21-0.13-0.25-0.25c-0.06-0.19,0.02-0.45,0.17-0.62c0.04-0.04,0.03-0.11,0.01-0.17
						c-0.01-0.03-0.03-0.05-0.05-0.06c-0.05-0.03-0.12-0.04-0.16-0.04c-0.06,0.49-0.39,0.58-0.53,0.59
						c-0.16,0.02-0.29-0.09-0.39-0.33c-0.02-0.05-0.06-0.09-0.11-0.1v0c-0.01,0-0.03-0.01-0.04-0.01l-0.16-0.01l-0.2-0.01
						c0.1,1.04,0.98,1.85,2.05,1.85c0.06,0,0.13,0,0.19-0.01C45.01,39.23,45,39.16,44.99,39.1z"/>
				</g>
			</g>
			<g>
				<g>
					<path style="fill:#FFFFFF;" d="M46.73,37.58c-0.02,0-0.05,0-0.07,0c-0.06,0-0.13-0.01-0.19-0.03c-0.1-0.02-0.21-0.06-0.31-0.11
						c-0.26-0.12-0.45-0.27-0.46-0.27l-0.01-0.01c-0.01-0.01-0.03-0.02-0.04-0.03c-0.04,0.07-0.11,0.13-0.2,0.15
						c-0.15,0.04-0.33-0.04-0.44-0.18c-0.12-0.16-0.17-0.32-0.15-0.47c0.02-0.12,0.07-0.21,0.14-0.27h-1.5l-0.05-0.05l-0.06-0.06
						c-0.01-0.01-0.03-0.04-0.07-0.08c-0.03-0.04-0.08-0.1-0.12-0.16c-0.23,0.31-0.38,0.68-0.41,1.07l0.19,0.01l0.19,0.01
						c0,0,0,0,0,0c0.21,0.02,0.4,0.15,0.48,0.35c0.02,0.04,0.03,0.06,0.04,0.08c0.05-0.02,0.12-0.08,0.14-0.26
						c0.01-0.12,0.07-0.22,0.17-0.27c0.21-0.12,0.5,0.01,0.53,0.02c0.12,0.06,0.22,0.17,0.26,0.3c0.07,0.21,0.03,0.41-0.09,0.54
						c-0.08,0.09-0.1,0.2-0.09,0.25c0.15,0.05,0.37,0.23,0.53,0.44c0.08,0.1,0.14,0.2,0.18,0.31c0.03,0.06,0.05,0.12,0.06,0.18
						c0.02,0.07,0.02,0.13,0.03,0.19c0.75-0.22,1.33-0.86,1.46-1.65C46.81,37.58,46.77,37.58,46.73,37.58z"/>
				</g>
			</g>
			<g>
				<g>
					<path style="fill:#FFFFFF;" d="M45.37,35.33l-0.26,0.24l-0.06-0.35c0,0-0.05-0.3-0.24-0.48c-0.18,0.17-0.24,0.47-0.24,0.48
						l-0.06,0.35l-0.26-0.24c-0.07,0.15-0.09,0.3-0.04,0.44c0,0,0,0,0,0c0.01,0.02,0.01,0.04,0.02,0.05
						c0.02,0.06,0.05,0.11,0.08,0.14h1c0.02-0.03,0.05-0.08,0.08-0.14c0.01-0.02,0.01-0.03,0.02-0.05c0-0.01,0-0.01,0-0.02
						C45.46,35.61,45.44,35.47,45.37,35.33z"/>
				</g>
			</g>
			<g>
				<g>
					<path style="fill:#FFFFFF;" d="M45.99,33.74l-0.33,0.3c0,0-0.16-0.97-0.84-1.35c-0.68,0.38-0.84,1.35-0.84,1.35l-0.33-0.3
						c-0.68,0.84-0.42,1.58-0.2,1.96c0.04,0.07,0.08,0.12,0.11,0.16c0.05,0.07,0.09,0.1,0.09,0.1h0.07h0.16
						c-0.01-0.03-0.02-0.05-0.03-0.08c-0.01-0.02-0.01-0.04-0.02-0.06c0-0.02-0.01-0.04-0.01-0.05c-0.04-0.23-0.02-0.54,0.25-0.86
						l0.13-0.16l0.09,0.09c0.08-0.18,0.21-0.39,0.43-0.51l0.09-0.05l0.09,0.05c0.22,0.12,0.35,0.33,0.43,0.51l0.09-0.09l0.13,0.16
						c0.27,0.33,0.29,0.64,0.25,0.86c0,0.02-0.01,0.04-0.01,0.05c0,0.02-0.01,0.04-0.02,0.06c-0.01,0.03-0.02,0.06-0.03,0.08h0.16
						h0.07c0,0,0.04-0.04,0.09-0.1c0.03-0.04,0.07-0.1,0.11-0.16C46.41,35.32,46.67,34.58,45.99,33.74z"/>
				</g>
			</g>
		</g>
	</g>
	<g>
		<circle style="fill:#82C341;" cx="52.05" cy="22.49" r="5.69"/>
		<g>
			<g>
				<path style="fill:#FFFFFF;" d="M52,21.87c0,0-1.9,0.5-1.87,2.26c0,0,0.7,0.12,1.13-0.47C51.7,23.06,52,21.87,52,21.87z"/>
				<path style="fill:#FFFFFF;" d="M50.28,24.15c-0.09,0-0.14-0.01-0.15-0.01l-0.01,0l0-0.01c-0.02-0.92,0.49-1.49,0.92-1.8
					c0.47-0.34,0.95-0.47,0.95-0.47l0.02-0.01l-0.01,0.02c0,0.01-0.31,1.2-0.74,1.79C50.97,24.09,50.51,24.15,50.28,24.15z
					 M50.15,24.11c0.09,0.01,0.71,0.07,1.1-0.47c0.39-0.53,0.68-1.58,0.73-1.76c-0.1,0.03-0.52,0.17-0.92,0.46
					C50.64,22.66,50.14,23.22,50.15,24.11z"/>
			</g>
			<path style="fill:#FFFFFF;" d="M50.24,22.95c0,0-0.5-0.65-1.45-0.88c0,0,0.66,1.93,1.12,2.1C49.9,24.16,50.02,23.36,50.24,22.95z
				"/>
			<path style="fill:#FFFFFF;" d="M51.85,25.5c-0.28,0-0.58,0-0.85,0c-0.24,0-0.42-0.08-0.56-0.24c-0.27-0.32-0.19-0.85-0.19-0.87
				l0.21,0.03l-0.1-0.02l0.1,0.02c0,0-0.07,0.45,0.14,0.7c0.09,0.11,0.22,0.16,0.4,0.16c0.79,0.01,1.89,0,1.9,0l0,0l0,0
				c0,0,0.25,0.01,0.41-0.14c0.1-0.1,0.16-0.24,0.17-0.43l0-1.72h0.21v1.72c-0.01,0.25-0.09,0.45-0.24,0.58
				c-0.22,0.2-0.52,0.19-0.56,0.19C52.86,25.5,52.38,25.5,51.85,25.5z"/>
			<g>
				<path style="fill:#FFFFFF;" d="M50.36,19.82L50.36,19.82c-0.42,0-0.75,0.34-0.75,0.75v1.23c0,0.06,0.01,0.12,0.02,0.17
					c0.22,0.14,0.46,0.33,0.65,0.57c0.2-0.41,0.53-0.71,0.83-0.91v-1.06C51.11,20.16,50.78,19.82,50.36,19.82z"/>
				<path style="fill:#FFFFFF;" d="M50.28,22.58l-0.01-0.02c-0.17-0.21-0.39-0.41-0.65-0.57l-0.01,0l0-0.01
					c-0.01-0.06-0.02-0.12-0.02-0.17v-1.23c0-0.42,0.35-0.77,0.77-0.77c0.42,0,0.77,0.35,0.77,0.77v1.07l-0.01,0
					c-0.38,0.25-0.66,0.55-0.83,0.91L50.28,22.58z M49.64,21.97c0.25,0.16,0.47,0.35,0.64,0.55c0.17-0.35,0.45-0.65,0.82-0.89v-1.05
					c0-0.41-0.33-0.74-0.74-0.74s-0.74,0.33-0.74,0.74v1.23C49.62,21.86,49.63,21.92,49.64,21.97z"/>
			</g>
			<path style="fill:#FFFFFF;" d="M53.62,23L53.62,23c-0.45,0-0.81-0.36-0.81-0.81v-0.42h1.55v0.5C54.36,22.67,54.03,23,53.62,23z"
				/>
			<path style="fill:#FFFFFF;" d="M54.41,21.54h-1.64c-0.14,0-0.25-0.11-0.25-0.25l0,0c0-0.14,0.11-0.25,0.25-0.25h1.64
				c0.14,0,0.25,0.11,0.25,0.25l0,0C54.67,21.43,54.55,21.54,54.41,21.54z"/>
			<path style="fill:#FFFFFF;" d="M54.28,20.81h-0.32v-0.62c0-0.09,0.07-0.16,0.16-0.16l0,0c0.09,0,0.16,0.07,0.16,0.16V20.81z"/>
			<path style="fill:#FFFFFF;" d="M53.23,20.81h-0.32v-0.62c0-0.09,0.07-0.16,0.16-0.16l0,0c0.09,0,0.16,0.07,0.16,0.16V20.81z"/>
		</g>
	</g>
	<g>
		<path style="fill:#82C341;" d="M13.98,27.25c0.86,1.06,2.02,1.74,3.26,2.01c0,0,0,0,0.01,0c1.54,0.33,3.19,0.04,4.56-0.93
			c0.11-0.07,0.21-0.15,0.31-0.23c2.48-2.01,2.86-5.65,0.85-8.12c-2.01-2.48-5.65-2.86-8.13-0.85
			C12.36,21.14,11.98,24.77,13.98,27.25z"/>
		<g>
			<path style="fill:#FFFFFF;" d="M18.85,23.78c0,0.37,0,0.74,0,1.11c0,0.09,0.01,0.13,0.13,0.14c0.23,0.02,0.35,0.37,0.24,0.58
				c-0.08,0.14-0.1,0.29-0.32,0.26c-0.08-0.01-0.05,0.1-0.05,0.16c0,0.35-0.01,0.71,0,1.06c0,0.19-0.07,0.26-0.25,0.26
				c-0.72-0.01-0.61,0.07-0.62-0.61c0-0.2,0-0.4,0-0.6c0-0.14,0.05-0.3-0.21-0.29c-0.14,0-0.25-0.42-0.17-0.55
				c0.08-0.14,0.1-0.33,0.34-0.31c0.06,0.01,0.03-0.11,0.03-0.17c0-0.69,0.01-1.38,0-2.07c0-0.17,0.02-0.25,0.22-0.23
				c0.17,0.02,0.34,0.01,0.51,0c0.13-0.01,0.16,0.04,0.16,0.16C18.85,23.04,18.85,23.41,18.85,23.78z"/>
			<path style="fill:#FFFFFF;" d="M17,25.43c0.22,0.11,0.37,0.25,0.32,0.5c-0.03,0.17-0.15,0.25-0.3,0.28
				c-0.24,0.05-0.37-0.1-0.47-0.32c-0.14,0.22-0.28,0.41-0.56,0.33c-0.15-0.05-0.24-0.16-0.26-0.32c-0.03-0.24,0.14-0.36,0.32-0.46
				c-0.18-0.12-0.37-0.23-0.33-0.49c0.03-0.16,0.14-0.27,0.3-0.31c0.25-0.05,0.38,0.1,0.51,0.32c0.12-0.23,0.28-0.38,0.54-0.31
				c0.14,0.04,0.23,0.15,0.25,0.3C17.35,25.19,17.21,25.33,17,25.43z M16.18,25.44c-0.01,0.2,0.14,0.36,0.33,0.37
				c0.2,0.01,0.36-0.14,0.36-0.33c0.01-0.2-0.14-0.36-0.33-0.37C16.35,25.1,16.19,25.25,16.18,25.44z"/>
			<path style="fill:#FFFFFF;" d="M20.29,24.97c0.13-0.24,0.27-0.37,0.52-0.33c0.17,0.03,0.27,0.15,0.29,0.31
				c0.04,0.25-0.14,0.37-0.33,0.48c0.2,0.11,0.37,0.23,0.33,0.48c-0.03,0.17-0.14,0.27-0.31,0.3c-0.23,0.04-0.38-0.09-0.49-0.3
				c-0.14,0.19-0.28,0.37-0.55,0.3c-0.15-0.04-0.24-0.16-0.26-0.32c-0.02-0.23,0.12-0.37,0.32-0.47c-0.22-0.12-0.36-0.27-0.31-0.53
				c0.03-0.15,0.13-0.24,0.27-0.27C20.04,24.59,20.18,24.74,20.29,24.97z M20.3,25.8c0.18,0,0.35-0.15,0.36-0.34
				c0.01-0.2-0.15-0.38-0.34-0.38c-0.19,0-0.35,0.15-0.36,0.34C19.95,25.62,20.1,25.79,20.3,25.8z"/>
			<path style="fill:#FFFFFF;" d="M19.14,23.46c0.19,0.33,0.31,0.19,0.44,0.05c0.35-0.36,0.51-0.36,0.85,0
				c0.17,0.18,0.27,0.19,0.44,0c0.34-0.37,0.5-0.36,0.85,0c0.1,0.1,0.19,0.2,0.29,0.29c0.07,0.07,0.1,0.15,0.02,0.23
				c-0.08,0.08-0.16,0.05-0.23-0.02c-0.13-0.12-0.25-0.25-0.37-0.38c-0.09-0.1-0.17-0.11-0.26,0c-0.02,0.02-0.03,0.03-0.05,0.05
				c-0.41,0.4-0.53,0.41-0.92,0c-0.14-0.14-0.23-0.17-0.37,0c-0.07,0.09-0.16,0.18-0.26,0.24c-0.23,0.14-0.42,0.04-0.42-0.23
				C19.14,23.66,19.14,23.61,19.14,23.46z"/>
			<path style="fill:#FFFFFF;" d="M19.16,22.59c0.18,0.23,0.3,0.11,0.43-0.03c0.34-0.35,0.49-0.35,0.84,0
				c0.22,0.22,0.22,0.22,0.44,0c0.35-0.34,0.5-0.35,0.84-0.01c0.09,0.09,0.18,0.18,0.27,0.27c0.07,0.08,0.17,0.15,0.06,0.26
				c-0.12,0.12-0.2,0.02-0.28-0.06c-0.11-0.11-0.22-0.21-0.32-0.32c-0.1-0.11-0.18-0.12-0.27,0c-0.02,0.03-0.04,0.05-0.07,0.07
				c-0.38,0.38-0.51,0.39-0.88-0.01c-0.16-0.17-0.26-0.17-0.39,0.01c-0.02,0.03-0.06,0.06-0.08,0.09c-0.13,0.14-0.28,0.26-0.49,0.17
				C19.05,22.93,19.19,22.75,19.16,22.59z"/>
			<path style="fill:#FFFFFF;" d="M17.68,23.76c-0.19-0.28-0.31-0.17-0.45-0.02c-0.34,0.36-0.51,0.36-0.85-0.01
				c-0.17-0.19-0.27-0.17-0.43,0.01c-0.34,0.36-0.48,0.35-0.83,0c-0.09-0.09-0.17-0.17-0.26-0.26c-0.08-0.08-0.18-0.16-0.06-0.28
				c0.11-0.1,0.19-0.01,0.26,0.06c0.11,0.11,0.23,0.22,0.34,0.34c0.09,0.1,0.17,0.1,0.26,0c0.02-0.02,0.04-0.05,0.07-0.07
				c0.38-0.38,0.52-0.38,0.88,0.01c0.16,0.17,0.26,0.18,0.4,0c0.07-0.09,0.15-0.17,0.25-0.23c0.23-0.14,0.42-0.04,0.42,0.23
				C17.68,23.59,17.68,23.64,17.68,23.76z"/>
			<path style="fill:#FFFFFF;" d="M17.68,22.76c-0.16-0.22-0.28-0.14-0.41,0.01c-0.37,0.39-0.51,0.39-0.88,0
				c-0.15-0.16-0.26-0.19-0.39,0c-0.06,0.08-0.13,0.14-0.21,0.2c-0.15,0.12-0.32,0.13-0.47,0.01c-0.18-0.15-0.34-0.32-0.5-0.49
				c-0.07-0.07-0.07-0.14,0-0.21c0.07-0.07,0.15-0.06,0.21,0.01c0.13,0.13,0.27,0.26,0.39,0.39c0.09,0.1,0.17,0.11,0.25,0
				c0.01-0.01,0.02-0.02,0.03-0.03c0.45-0.44,0.52-0.45,0.97,0.01c0.12,0.12,0.2,0.13,0.31,0c0.04-0.05,0.09-0.09,0.13-0.14
				c0.14-0.14,0.3-0.24,0.49-0.15C17.78,22.43,17.65,22.61,17.68,22.76z"/>
			<path style="fill:#FFFFFF;" d="M18.42,19.99c0.31,0,0.54,0.24,0.54,0.55c0,0.35-0.27,0.7-0.54,0.7c-0.26,0-0.53-0.35-0.54-0.7
				C17.87,20.22,18.1,19.99,18.42,19.99z"/>
			<path style="fill:#FFFFFF;" d="M18.39,21.53c0.14,0,0.27-0.01,0.41,0c0.2,0.01,0.31,0.11,0.3,0.32c0,0.21-0.09,0.34-0.31,0.35
				c-0.27,0.01-0.53,0.01-0.8,0c-0.2-0.01-0.31-0.12-0.31-0.33c0-0.21,0.11-0.33,0.32-0.35C18.13,21.52,18.26,21.53,18.39,21.53z"/>
			<path style="fill:#FFFFFF;" d="M16.2,26.62c-0.18,0-0.35,0-0.53,0c-0.11,0-0.2-0.05-0.19-0.16c0-0.11,0.09-0.14,0.19-0.14
				c0.34,0,0.67,0,1.01,0c0.11,0,0.2,0.04,0.2,0.16c0.01,0.13-0.1,0.15-0.2,0.15C16.52,26.62,16.36,26.62,16.2,26.62z"/>
			<path style="fill:#FFFFFF;" d="M19.83,26.75c0.18,0,0.35,0,0.53,0c0.09,0,0.16,0.04,0.17,0.13c0.01,0.11-0.06,0.17-0.16,0.17
				c-0.36,0-0.72,0-1.08,0c-0.09,0-0.16-0.05-0.16-0.15c0-0.12,0.07-0.15,0.17-0.15C19.48,26.75,19.66,26.75,19.83,26.75z"/>
			<path style="fill:#FFFFFF;" d="M21.09,26.75c0.08,0,0.16,0,0.24,0c0.09,0,0.16,0.04,0.16,0.14c0,0.1-0.06,0.16-0.16,0.16
				c-0.14,0-0.29,0-0.43,0c-0.11,0-0.19-0.05-0.18-0.17c0-0.11,0.09-0.14,0.18-0.14C20.96,26.75,21.03,26.75,21.09,26.75
				C21.09,26.75,21.09,26.75,21.09,26.75z"/>
			<path style="fill:#FFFFFF;" d="M17.45,26.31c0.14,0.04,0.37-0.07,0.37,0.15c0,0.22-0.22,0.16-0.36,0.16
				c-0.14-0.01-0.38,0.08-0.39-0.15C17.07,26.21,17.32,26.36,17.45,26.31z"/>
			<path style="fill:#FFFFFF;" d="M17.35,20.77c-0.1,0.01-0.21-0.01-0.22-0.15c-0.01-0.14,0.1-0.16,0.21-0.16
				c0.11,0,0.22,0.01,0.23,0.14C17.59,20.75,17.48,20.78,17.35,20.77z"/>
			<path style="fill:#FFFFFF;" d="M19.44,20.76c-0.07,0-0.2-0.01-0.19-0.15c0-0.13,0.11-0.16,0.23-0.16c0.11,0,0.22,0.02,0.22,0.16
				C19.69,20.74,19.58,20.76,19.44,20.76z"/>
			<path style="fill:#FFFFFF;" d="M17.7,20.07c-0.11-0.05-0.22-0.12-0.23-0.26c0-0.08,0.07-0.16,0.16-0.14
				c0.12,0.04,0.23,0.12,0.24,0.26C17.87,20.02,17.8,20.07,17.7,20.07z"/>
			<path style="fill:#FFFFFF;" d="M19.2,19.66c0.11,0.02,0.18,0.09,0.16,0.17c-0.03,0.12-0.12,0.23-0.26,0.24
				c-0.09,0-0.16-0.06-0.14-0.15C18.99,19.79,19.09,19.71,19.2,19.66z"/>
			<path style="fill:#FFFFFF;" d="M18.56,19.55c0.01,0.11-0.01,0.22-0.15,0.23c-0.12,0-0.15-0.09-0.15-0.2
				c0-0.12,0.01-0.25,0.16-0.24C18.54,19.34,18.57,19.45,18.56,19.55z"/>
		</g>
	</g>
</g>
</svg>
