<?xml version="1.0" encoding="UTF-8"?> <!-- Creator: CorelDRAW 2018 (64 Bit) --> <svg xmlns="http://www.w3.org/2000/svg" xmlns:xlink="http://www.w3.org/1999/xlink" xml:space="preserve" width="265.853mm" height="99.4954mm" version="1.1" style="shape-rendering:geometricPrecision; text-rendering:geometricPrecision; image-rendering:optimizeQuality; fill-rule:evenodd; clip-rule:evenodd" viewBox="0 0 827.04 309.52"> <defs> <style type="text/css"> <![CDATA[ .str1 {stroke:#4B4B4D;stroke-width:3.11;stroke-miterlimit:22.9256} .str0 {stroke:#FEFEFE;stroke-width:3.11;stroke-miterlimit:22.9256} .fil2 {fill:none} .fil1 {fill:#FEFEFE} .fil0 {fill:#727375} .fil5 {fill:#FEFEFE} .fil4 {fill:#FF5D00} .fil6 {fill:white} .fil7 {fill:#727375;fill-rule:nonzero} .fil3 {fill:#FF5D00;fill-rule:nonzero} ]]> </style> </defs> <g id="Capa_x0020_1"> <metadata id="CorelCorpID_0Corel-Layer"></metadata> <g id="_2257238590624"> <path class="fil0 str0" d="M75.03 196.88c13.33,22.55 28.71,45.39 42.56,67.52 8.8,14.06 17.42,27.89 25.82,42.16l23.3 -35.99c16.84,-26.71 45.98,-69.42 57.71,-93.7 1.19,-2.46 2.24,-4.96 3.17,-7.48 2.98,-5.62 5.86,-12.13 7.06,-15.33 3.75,-10.04 6.05,-19.69 6.05,-31.4 0,-22.02 -7.48,-43.72 -18.25,-56.91 -11.59,-14.18 -21.05,-25.31 -41.37,-33.92 -9.34,-3.96 -18.51,-6.65 -30.15,-7.72 -16.88,-1.55 -20.78,1.17 -33.77,2.77 -2.02,-2.02 -2.63,-3.88 -6.1,-4.61 -3.34,-0.71 -6.58,0.34 -8.36,1.86 -5.07,4.31 -2.05,9.35 -0.92,14.88 2.51,12.25 -5.67,22.08 -13.75,25.54 -14.56,6.23 -20.19,-1.57 -25.66,-10.13 -7.74,-12.12 -20.05,-9.31 -26.26,-2.71 -3.28,3.48 -5.11,9.63 -3.93,15.47 3.89,19.13 29.93,4.16 32.61,27.91 1.47,13.06 -6.32,21.56 -15.75,24.61 -5.76,1.86 -11.08,1.48 -12.37,7.92 -1.29,6.45 2.77,10.59 8.78,10.81 10.41,25.16 16.16,35.85 29.56,58.49z"></path> <g> <path class="fil1" d="M144.12 63.21c37.94,0 68.7,30.76 68.7,68.7 0,37.94 -30.76,68.7 -68.7,68.7 -37.94,0 -68.7,-30.76 -68.7,-68.7 0,-37.94 30.76,-68.7 68.7,-68.7z"></path> </g> <path class="fil2 str1" d="M134.78 68.42c35.04,-5.59 68.06,19.56 72.98,54.47 4.96,35.2 -19.21,67.48 -54.32,72.62 -34.48,5.05 -67.6,-18.98 -72.84,-53.55 -5.43,-35.85 18.7,-67.89 54.18,-73.55z"></path> <path class="fil3" d="M132.52 154.36l12.52 0c4.16,0 7.11,-0.61 8.87,-1.84 1.76,-1.21 2.64,-3.22 2.64,-6.02 0,-2.79 -0.9,-4.77 -2.69,-5.96 -1.78,-1.19 -4.8,-1.78 -9.04,-1.78l-12.28 0 0 15.59zm0 -30.94l11.15 0c3.73,0 6.37,-0.55 7.89,-1.66 1.52,-1.11 2.29,-2.97 2.29,-5.61 0,-2.79 -0.82,-4.69 -2.46,-5.72 -1.64,-1.04 -5.43,-1.54 -11.37,-1.54l-7.5 0 0 14.53zm-26.25 50.62l0 -84.26 34.55 0c7.42,0 12.85,0.2 16.25,0.57 3.4,0.39 6.31,1.02 8.75,1.89 4.28,1.6 7.54,4.1 9.82,7.48 2.27,3.4 3.4,7.52 3.4,12.36 0,3.81 -0.84,7.13 -2.54,9.98 -1.7,2.83 -4.26,5.18 -7.66,6.99 4.47,1.6 7.77,4 9.92,7.21 2.13,3.2 3.2,7.36 3.2,12.48 0,5 -1.03,9.34 -3.12,13.03 -2.07,3.67 -5.1,6.5 -9.06,8.5 -2.68,1.37 -5.74,2.34 -9.16,2.91 -3.44,0.57 -9.12,0.86 -17.07,0.86l-37.28 0z"></path> <ellipse class="fil4" cx="82.18" cy="45.82" rx="18.07" ry="17.38"></ellipse> <ellipse class="fil4" cx="44.26" cy="99.37" rx="18.07" ry="17.38"></ellipse> <ellipse class="fil4" cx="31.66" cy="35.54" rx="13.22" ry="12.72"></ellipse> <ellipse class="fil4" cx="61.85" cy="10.93" rx="9.98" ry="9.6"></ellipse> <ellipse class="fil4" cx="100.1" cy="9.6" rx="9.98" ry="9.6"></ellipse> <ellipse class="fil4" cx="9.98" cy="68.25" rx="9.98" ry="9.6"></ellipse> <g> <path class="fil1" d="M81.8 51.22l0.77 0 1.19 6 -3.13 0.01 1.18 -6.01zm-3.35 -3.39c-0.2,-0.14 -0.21,-0.11 -0.46,-0.03 -1.65,0.52 -3.69,1.14 -5.22,1.83 -0.6,0.27 -1.12,0.51 -1.42,0.91 -0.92,1.23 -1.21,4.18 -1.33,5.72 -0.16,2.04 1.78,1.72 2.88,1.72 6.23,0 12.46,0 18.7,0 1.31,0 2.89,0.27 2.72,-1.9 -0.12,-1.51 -0.43,-4.48 -1.4,-5.65 -0.65,-0.79 -5.4,-2.33 -6.67,-2.67 -0.25,-0.07 -0.39,0.1 -0.73,0.35 -0.24,0.18 -0.41,0.31 -0.66,0.49l-2.69 1.95 -3.74 -2.72z"></path> </g> <g> <path class="fil1" d="M81.8 33.65c-3.17,0.25 -5.45,3.32 -4.83,6.95 0.47,2.75 2.66,6.71 5.62,6.32 2.55,-0.34 4.71,-4.07 4.91,-7.07 0.23,-3.43 -2.3,-6.47 -5.7,-6.2z"></path> </g> <g> <path class="fil5" d="M42.42 107.06c0.43,-0.71 -0.27,-1.58 -1.25,-1.38 -0.45,0.09 -1.28,0.91 -1.49,1.32 -0.44,0.87 0.45,1.37 1.23,1.38 0.66,0.01 1.19,-0.8 1.51,-1.32z"></path> </g> <g> <path class="fil5" d="M40.3 106c0.47,-0.77 -0.53,-1.46 -1.26,-1.45 -0.62,0 -1.57,0.87 -1.65,1.12 -0.22,0.75 0.65,1.53 1.34,1.52 0.44,-0.01 0.7,-0.32 0.93,-0.52 0.03,-0.03 0.64,-0.67 0.64,-0.67z"></path> </g> <g> <path class="fil5" d="M36.33 103.63c-1.82,0.94 0.03,2.36 0.8,1.91 1.6,-0.94 0.35,-2.5 -0.8,-1.91z"></path> </g> <g> <path class="fil5" d="M54.36 93.64l1.36 6.49c0.2,0.7 0.28,1.48 0.49,2.16l1.14 -0.16c-0.25,2.69 -2.63,6.05 -4.71,7.7 -2.42,1.91 -5.45,3.12 -9.45,2.91 -10.72,-0.57 -13.78,-9.95 -14.45,-10.37 0.08,1.56 1.43,4.36 2.11,5.42 1.08,1.71 2.22,2.87 3.54,3.95 2.67,2.19 6.79,3.84 11.47,3.39 7.8,-0.75 14.26,-7.35 14.26,-15.78 0,-2.67 -0.66,-4.68 -1.51,-6.84 -0.28,0 -4.02,1.03 -4.23,1.15z"></path> </g> <g> <path class="fil5" d="M51.98 103.42c0.53,-0.12 1.23,-0.88 1.56,-1.12 0.45,-0.33 1.45,-0.56 2.11,-0.63l-1.57 -7.46c-1.49,0.05 -3.17,0.7 -4.78,0.41 -1.37,-0.25 -3.16,-0.88 -4.59,-0.31 -0.54,0.21 -0.9,0.47 -1.85,0.79 -2.36,0.8 -1.65,0.75 -3.5,3.14 -0.83,1.07 0.8,1.54 1.91,0.74 0.57,-0.42 0.97,-0.71 1.39,-1.27 0.47,-0.63 0.74,-0.39 2.18,-0.46 1.09,-0.06 1.02,-0.19 1.88,0.74 0.79,0.85 1.78,1.75 2.62,2.68l2.66 2.75z"></path> </g> <g> <path class="fil5" d="M43.99 107.99c0.17,-0.68 -0.29,-1.18 -1.02,-0.98 -0.3,0.08 -0.42,0.31 -0.59,0.51 -0.18,0.2 -0.37,0.34 -0.53,0.56 -0.42,0.59 0.35,0.97 0.93,0.98 0.66,0.01 1.06,-0.5 1.2,-1.07z"></path> </g> <g> <path class="fil5" d="M36.01 94.51c-0.41,0.96 -3.25,6.97 -3.28,7.32 0.24,0.13 0.54,0.24 0.8,0.36l1.52 0.9c0.25,0.18 0.46,0.39 0.71,0.55 0.52,-0.09 0.73,-0.6 1.54,-0.23 0.46,0.2 0.78,0.59 0.84,1.2 0.67,-0.21 0.86,-0.46 1.65,-0.1 0.78,0.36 0.76,0.91 0.88,1.14 1.09,-0.5 2.02,-0.06 2.06,1.17 0.54,-0.01 0.91,-0.13 1.27,0.27 0.47,0.53 0.09,0.92 0.1,1.45 1.29,0.65 1.63,-0.25 1.59,-0.46 -0.03,-0.2 -1.51,-1.46 -1.82,-1.72l-0.47 -0.45c-0,-0.01 -0.01,-0.03 -0.01,-0.04 -0.18,-0.66 1.64,1.2 1.68,1.24 0.33,0.34 1.3,1.44 2.12,0.95 0.27,-0.16 0.55,-0.63 0.37,-1.09 -0.26,-0.68 -2.38,-2.03 -2.26,-2.58 0.29,0.02 1.68,1.5 1.97,1.77 0.25,0.23 0.63,0.69 1.12,0.76 0.76,0.12 2.05,-0.59 0.95,-1.98 -0.28,-0.36 -0.63,-0.7 -0.93,-1.02 -0.27,-0.29 -1.75,-1.6 -1.72,-2.05 0.3,0.01 0.54,0.35 0.72,0.56l2.02 2.19c1.89,2.03 3.09,0.32 2.31,-0.75l-5.47 -5.68c-0.22,-0.21 -0.36,-0.52 -0.76,-0.54 -0.36,-0.01 -0.94,0.04 -1.34,0.05 -1.39,0.02 -0.79,-0.07 -1.87,0.96 -0.38,0.36 -1.08,0.95 -1.68,1.11 -0.77,0.21 -1.83,-0.18 -1.92,-0.81 -0.1,-0.64 0.7,-1.43 0.99,-1.84 0.41,-0.58 0.78,-1.25 1.2,-1.6 0.65,-0.54 2.98,-1.03 3.89,-1.69 -0.82,-0.5 -1.48,-0.3 -2.33,-0.02 -0.77,0.25 -3.74,1.34 -4.28,1.42 -1.01,0.14 -1.4,-0.53 -2.17,-0.7z"></path> </g> <g> <path class="fil5" d="M32.14 102.1c0.31,-1.07 3.46,-7.43 3.58,-8.16l-3 -1.25c0.14,-0.66 1.53,-2.2 1.95,-2.64 2.27,-2.41 6.05,-4.12 9.62,-4.39 2.84,-0.22 5.54,0.42 7.77,1.45 1.55,0.71 3.03,1.65 4.31,2.7 0.42,0.34 0.86,0.83 1.23,1.09 -0.17,-0.48 -1.2,-1.74 -1.56,-2.1 -0.66,-0.66 -1.08,-1.14 -1.88,-1.79 -4.68,-3.8 -11.64,-4.54 -16.93,-1.82 -3.2,1.64 -5.71,4.08 -7.28,7.39 -0.83,1.74 -1.34,3.62 -1.49,5.84 -0.04,0.55 -0.04,1.22 -0.02,1.77 0.03,0.59 0.53,0.62 1.03,0.83 0.72,0.3 1.97,0.93 2.67,1.08z"></path> </g> <g> <path class="fil5" d="M8.38 72.8c1.88,0 3.93,-0.03 5.79,0 0.25,0 0.5,0.01 0.75,0.01 0.22,-0 0.52,0.02 0.61,-0.13 0.09,-0.15 0.32,-0.96 0.26,-1.11 -0.39,-0.14 -5.91,-0.04 -7.19,-0.04 -0.24,0 -0.47,-0 -0.71,-0.01 -0.29,-0.01 -0.34,-0.01 -0.44,-0.27 -0.12,-0.32 -0.21,-0.8 -0.31,-1.15l-1.58 -5.67c-0.36,-1.28 0.01,-1.01 -1.88,-1.01 -1.6,0 -1.78,-0.16 -1.6,0.41 0.22,0.69 0.07,0.86 0.61,0.87 0.24,0 0.48,-0.01 0.72,-0.01 0.86,-0.01 0.89,-0.11 1.03,0.43 0.2,0.75 0.42,1.52 0.63,2.26 0.43,1.51 0.84,3.01 1.27,4.53 0.23,0.83 0.15,0.89 0.59,0.88 0.49,-0.01 0.98,-0 1.46,-0z"></path> </g> <g> <path class="fil5" d="M17.83 64.74c-0.2,-0.1 -5.08,-0.05 -5.71,-0.05 -0.95,0 -1.91,0 -2.86,0 -0.47,0 -0.96,-0.01 -1.43,-0 -0.35,0.01 -0.23,0.22 -0.15,0.44 0.23,0.71 0.08,0.83 0.62,0.83l7.91 -0c0.3,0 1.15,0.1 1.32,-0.09 0.1,-0.1 0.36,-0.97 0.31,-1.13z"></path> </g> <g> <path class="fil5" d="M12.12 68.21c0.4,0 4.52,0.05 4.68,-0.05 0.15,-0.08 0.39,-0.98 0.36,-1.19l-8.68 -0.03c-0.33,-0 -0.29,0.05 -0.14,0.54 0.06,0.22 0.09,0.55 0.24,0.66 0.18,0.14 3.06,0.07 3.54,0.07z"></path> </g> <g> <path class="fil5" d="M12.16 75.09c0.25,1.42 2.42,1.11 2.16,-0.39 -0.25,-1.46 -2.42,-1.06 -2.16,0.39z"></path> </g> <g> <path class="fil5" d="M7.7 75.09c0.26,1.45 2.44,1.07 2.16,-0.39 -0.28,-1.45 -2.42,-1.07 -2.16,0.39z"></path> </g> <g> <path class="fil5" d="M16.26 70.27c0.07,-0.16 0.28,-0.85 0.24,-1 -0.1,-0.05 -7.41,-0.09 -7.63,0.02 -0.02,0.1 0.18,0.88 0.23,1 0.08,0.2 0.18,0.21 0.43,0.21l5.67 -0c0.57,0 0.91,0.09 1.06,-0.23z"></path> </g> <g> <path class="fil6" d="M29 30.73c-0.16,0.27 -0.23,0.54 -0.64,0.42 -0.11,-0.29 0.06,-0.54 0.25,-0.73 -1.18,-0.08 -0.46,1.66 0.31,0.97 0.16,-0.14 0.28,-0.44 0.09,-0.66z"></path> </g> <g> <path class="fil6" d="M36.6 31.79c-0.21,0.16 -0.22,0.41 -0.09,0.64 0.1,0.18 0.35,0.33 0.66,0.24 0.51,-0.15 0.55,-0.95 -0.08,-1.08 0.09,0.21 0.28,0.65 -0.02,0.75 -0.34,0.11 -0.37,-0.32 -0.46,-0.56z"></path> </g> <g> <path class="fil6" d="M32.24 33.14c-0.13,0.06 -0.15,0.07 -0.18,0.26 -0.06,0.37 0.24,0.74 0.68,0.64 0.52,-0.12 0.62,-0.88 0,-1.08 0.03,0.25 0.25,0.64 -0.06,0.74 -0.34,0.11 -0.37,-0.3 -0.44,-0.56z"></path> </g> <g> <path class="fil6" d="M36.34 29.72l0.74 1.88c0.63,0.12 0.59,0.92 0.08,1.08 -0.3,0.09 -0.56,-0.06 -0.66,-0.24 -0.13,-0.23 -0.11,-0.48 0.09,-0.64 -0.1,-0.41 -0.6,-1.69 -0.79,-1.9l-3.51 1.07c0.08,0.61 0.18,1.5 0.44,1.99 0.62,0.2 0.52,0.96 -0,1.08 -0.44,0.1 -0.74,-0.27 -0.68,-0.64 0.03,-0.19 0.05,-0.2 0.18,-0.26l-0.44 -2.01 -2.52 0.78 2.95 12.25 11.03 -3.37c-0.02,-0.31 -2.91,-7.89 -3.27,-8.84l-1.09 -2.96 -2.55 0.74z"></path> </g> <g> <path class="fil6" d="M31.76 30.81l-0.06 -0.75c-0.45,-0.2 -0.95,-0.66 -1.4,-0.9 -0.27,0.21 -0.49,0.49 -0.71,0.78 -0.19,0.24 -0.42,0.61 -0.59,0.8 0.19,0.22 0.07,0.52 -0.09,0.66 -0.77,0.7 -1.49,-1.05 -0.31,-0.97 0.2,-0.3 0.38,-0.54 0.6,-0.82 0.1,-0.13 0.23,-0.28 0.33,-0.4 0.15,-0.17 0.21,-0.18 0.32,-0.37 -0.33,-0.15 -0.79,-0.5 -1.1,-0.71 -0.26,-0.17 -0.86,-0.62 -1.1,-0.7l-3.79 4.98c-0.27,0.36 -3.7,4.82 -3.79,5.03 0.15,0.18 4.22,2.84 4.77,3.21 0.39,0.26 4.54,3.07 4.84,3.19 0.22,-0.36 0.43,-0.73 0.66,-1.13 0.26,-0.44 0.12,-0.7 -0,-1.48l-1.42 -9.56c0.4,-0.15 2.54,-0.84 2.85,-0.85z"></path> </g> <g> <path class="fil6" d="M29.85 28.82c-0.11,0.19 -0.16,0.2 -0.32,0.37 -0.1,0.12 -0.23,0.27 -0.33,0.4 -0.22,0.28 -0.4,0.52 -0.6,0.82 -0.19,0.18 -0.36,0.43 -0.25,0.73 0.41,0.12 0.48,-0.15 0.64,-0.42 0.17,-0.19 0.41,-0.56 0.59,-0.8 0.22,-0.28 0.44,-0.57 0.71,-0.78 0.18,-0.33 1.3,-1.26 1.84,-1.45 -0.37,0.93 -0.43,1.22 -0.44,2.35l0.06 0.75 0.04 0.32 0.44 2.01c0.07,0.26 0.1,0.67 0.44,0.56 0.31,-0.1 0.09,-0.49 0.06,-0.74 -0.26,-0.49 -0.36,-1.38 -0.44,-1.99 -0.01,-0.11 -0.01,-0.12 -0.01,-0.23 0,-0.02 0,-0.03 0,-0.05 0.03,-0.41 -0.18,-0.36 -0.03,-1.58 0.24,-1.92 1.39,-2.01 1.66,-0.89 0.16,0.68 -0.04,1.31 -0.17,1.92l0.59 -0.17c0.23,-0.7 0.17,-1.35 0.06,-2.04 0.35,0.23 1.21,1.35 1.41,1.96 0.19,0.21 0.69,1.49 0.79,1.9 0.09,0.23 0.12,0.67 0.46,0.56 0.3,-0.1 0.11,-0.54 0.02,-0.75l-0.74 -1.88c-0.51,-0.75 -1.32,-2.64 -2.79,-2.77 -1.21,-0.11 -2.2,0.46 -2.98,1.2 -0.2,0.19 -0.53,0.54 -0.71,0.68z"></path> </g> <g> <path class="fil1" d="M105.65 6.07c0.48,0.1 0.79,0.17 0.94,0.59 0.41,1.14 -1.5,3.15 -2.26,3.84 -0.67,0.61 -0.88,0.81 -1.69,1.41 -1.36,1.02 -3.33,2.2 -5.09,2.67 -0.81,0.21 -2.07,0.39 -2.37,-0.38 -0.16,-0.41 0.02,-0.9 0.18,-1.24 0.21,-0.47 0.45,-0.72 0.57,-0.97 -0.2,0.17 -0.64,0.8 -0.8,1.05 -0.22,0.34 -0.48,0.8 -0.58,1.24 -0.34,1.39 0.88,1.58 2.04,1.38 3.11,-0.54 7.92,-3.85 9.89,-6.63 0.23,-0.33 0.5,-0.75 0.66,-1.17 0.48,-1.28 -0.13,-1.94 -1.49,-1.78z"></path> </g> <g> <path class="fil1" d="M98.79 6.85c0.07,0.15 1.22,1.59 1.35,1.75 0.23,0.29 0.45,0.57 0.68,0.87 0.1,0.13 0.58,0.79 0.72,0.86 0.06,-0.13 1.25,-1.58 1.36,-1.71 0.47,-0.57 0.91,-1.14 1.38,-1.72l2.06 -2.56c0.23,-0.3 0.47,-0.57 0.68,-0.85 -0.09,0.04 -0.37,0.27 -0.48,0.36l-4.76 3.78c-0.08,0.06 -0.17,0.13 -0.24,0.19 -0.13,0.11 -0.13,0.1 -0.3,0.02 -0.41,-0.18 -0.81,-0.32 -1.21,-0.49l-1.25 -0.49z"></path> </g> <g> <path class="fil1" d="M95.84 5.57c0.05,0.08 0.24,0.3 0.32,0.38 0.64,0.66 1.75,2.14 2.15,2.84 0.9,1.57 1.04,2.68 1.23,4.46 0.02,-0.81 0.08,-1.4 -0.03,-2.23 -0.09,-0.68 -0.25,-1.31 -0.46,-1.9 -0.21,-0.59 -0.47,-1.12 -0.75,-1.62l-0.92 -1.47c0.13,-0.09 4.81,-1 5.72,-1.21 0.27,-0.06 0.23,-0.07 0.4,0.08 0.13,0.12 0.42,0.41 0.5,0.59 0.07,-0.03 0.47,-0.33 0.52,-0.4 -0.09,-0.29 -0.38,-0.65 -0.56,-0.84 -0.39,-0.41 -0.26,-0.33 -1.02,-0.17 -0.79,0.17 -1.58,0.32 -2.37,0.49 -0.51,0.11 -4.6,0.92 -4.72,1z"></path> </g> <g> <path class="fil1" d="M95.09 8.15c0.12,-0.16 1.02,-0.78 1.27,-1.03l-0.34 -0.43 -2.16 1.71c0.13,0.07 0.32,0.14 0.44,0.19 1.48,0.64 2.83,1.75 3.8,3.01 0.52,0.68 0.58,0.93 0.95,1.5 -0.04,-0.4 -0.44,-1.29 -0.62,-1.62 -0.28,-0.53 -0.58,-0.91 -0.9,-1.31 -0.63,-0.78 -1.47,-1.4 -2.45,-2.02z"></path> </g> <g> <path class="fil1" d="M93.9 10.68c0.09,-0.23 0.7,-0.95 0.82,-1.22l-0.42 -0.24c-0.21,0.2 -1.26,1.63 -1.38,1.98 1.59,-0.03 3.08,0.31 4.4,1.08l1.09 0.73c-0.11,-0.23 -0.63,-0.72 -0.84,-0.89 -1.02,-0.85 -2.26,-1.26 -3.66,-1.45z"></path> </g> <g> <path class="fil1" d="M104.69 6.82c0.01,0.17 0.26,0.78 0.34,1.37 0.02,0.12 0.03,0.4 0.09,0.5 0.06,-0.84 0.03,-1.32 -0.12,-2.11 -0.13,0.06 -0.19,0.18 -0.31,0.25z"></path> </g> <polygon class="fil1" points="54.83,16.86 68.84,16.86 68.87,16.26 55.42,16.26 55.42,5.36 54.83,5.36 "></polygon> <path class="fil1" d="M65.91 6.32c0.01,0.01 0.03,0.01 0.03,0.02 0.01,0.02 0.02,0.02 0.03,0.02 0.05,0.03 0.06,0.03 0.1,0.05l0.57 0.15 -2.71 3.32c-0.15,-0.07 -0.59,-0.44 -0.77,-0.57 -0.28,-0.21 -0.48,-0.39 -0.76,-0.59 -0.52,-0.38 -0.99,-0.78 -1.52,-1.18 -0.19,-0.14 -0.23,-0.11 -0.47,-0l-1.43 0.6c-0.62,0.26 -1.31,0.52 -1.89,0.79l0.29 0.72c0.59,-0.19 1.29,-0.52 1.87,-0.76 0.32,-0.13 0.63,-0.27 0.95,-0.4 0.16,-0.06 0.32,-0.18 0.44,-0.12 0.19,0.09 2.81,2.22 3.39,2.62 0.34,-0.28 3.01,-3.74 3.23,-3.87 0.07,0.14 0.24,0.53 0.37,0.65l0.82 -2.76c-0.85,0.39 -1.71,0.92 -2.55,1.32z"></path> <polygon class="fil1" points="66.5,15.81 68.17,15.82 68.16,8.52 66.51,8.51 "></polygon> <polygon class="fil1" points="59.84,15.82 61.51,15.82 61.51,9.67 59.84,9.67 "></polygon> <polygon class="fil1" points="56.51,15.83 58.18,15.82 58.18,10.69 56.5,10.69 "></polygon> <polygon class="fil1" points="63.17,15.82 64.84,15.82 64.84,11.84 63.18,11.83 "></polygon> <path class="fil7" d="M307.43 188.55l15.66 0c5.2,0 8.89,-0.76 11.09,-2.3 2.2,-1.51 3.3,-4.03 3.3,-7.52 0,-3.49 -1.12,-5.96 -3.37,-7.45 -2.22,-1.49 -6.01,-2.22 -11.31,-2.22l-15.36 0 0 19.49zm0 -38.69l13.95 0c4.67,0 7.96,-0.68 9.87,-2.08 1.91,-1.39 2.86,-3.71 2.86,-7.01 0,-3.49 -1.03,-5.86 -3.08,-7.16 -2.05,-1.29 -6.79,-1.93 -14.21,-1.93l-9.38 0 0 18.17zm-32.83 63.31l0 -105.36 43.21 0c9.28,0 16.07,0.24 20.32,0.71 4.25,0.49 7.89,1.27 10.94,2.37 5.35,2 9.43,5.13 12.28,9.35 2.83,4.25 4.25,9.4 4.25,15.46 0,4.76 -1.05,8.91 -3.17,12.48 -2.13,3.54 -5.32,6.47 -9.57,8.74 5.59,2 9.72,5.01 12.41,9.01 2.66,4.01 4.01,9.21 4.01,15.61 0,6.25 -1.29,11.67 -3.91,16.29 -2.59,4.59 -6.37,8.13 -11.33,10.62 -3.35,1.71 -7.18,2.93 -11.45,3.64 -4.3,0.71 -11.41,1.07 -21.35,1.07l-46.62 0z"></path> <polygon class="fil7" points="402.61,213.17 402.61,135.35 433.83,135.35 433.83,213.17 "></polygon> <path class="fil3" d="M497.58 181.63c0,2.64 0.76,4.47 2.3,5.54 1.51,1.07 4.23,1.61 8.13,1.61 1.15,0 2.03,0 2.61,-0.02 0.61,-0.02 1.2,-0.07 1.76,-0.12l0 22.42c-3.81,0.24 -7.28,0.42 -10.4,0.54 -3.13,0.12 -6.06,0.2 -8.77,0.2 -9.82,0 -16.68,-1.66 -20.56,-4.96 -3.88,-3.3 -5.84,-9.06 -5.84,-17.34l0 -38.96 -10.99 0 0 -17.88 10.99 0 0 -24.03 30.77 0 0 24.03 14.51 0 0 17.88 -14.51 0 0 31.09zm45.11 28.84l0 -77.81 28.55 0 0 14.17c2.05,-5.62 5.01,-9.72 8.84,-12.31 3.83,-2.61 8.96,-3.91 15.36,-3.91l2.78 0 0 30.85c-1.15,-0.1 -2.25,-0.2 -3.3,-0.27 -1.05,-0.07 -2.05,-0.1 -3,-0.1 -6.25,0 -10.84,1.42 -13.77,4.23 -2.93,2.81 -4.4,7.23 -4.4,13.24l0 31.92 -31.07 0zm137.19 -34.73c-2.96,1.15 -6.89,2.37 -11.8,3.66 -7.72,2.05 -11.58,4.79 -11.58,8.23 0,2.2 0.76,3.91 2.3,5.15 1.51,1.25 3.69,1.86 6.5,1.86 5.15,0 8.91,-1.2 11.26,-3.59 2.37,-2.37 3.54,-6.18 3.54,-11.38 0,-1.1 0,-1.91 -0.02,-2.47 -0.02,-0.54 -0.1,-1.03 -0.2,-1.47zm2.86 34.73l-1.93 -7.45c-3.96,3.49 -8.23,6.06 -12.8,7.72 -4.59,1.69 -9.75,2.52 -15.46,2.52 -8.77,0 -15.56,-2.15 -20.37,-6.47 -4.79,-4.32 -7.18,-10.43 -7.18,-18.29 0,-7.69 2.37,-13.36 7.08,-17.05 4.71,-3.66 13.65,-6.35 26.77,-8.01 1.66,-0.24 3.91,-0.49 6.72,-0.78 9.79,-1.05 14.68,-3.59 14.68,-7.6 0,-2.22 -0.9,-3.86 -2.69,-4.88 -1.78,-1.03 -4.62,-1.54 -8.47,-1.54 -3.2,0 -5.67,0.64 -7.38,1.91 -1.71,1.27 -2.71,3.22 -3,5.86l-30.19 0c0.15,-8.74 3.71,-15.36 10.72,-19.83 7.01,-4.47 17.32,-6.69 30.92,-6.69 6.4,0 12.28,0.59 17.71,1.78 5.4,1.2 9.62,2.81 12.63,4.81 3.66,2.49 6.25,5.28 7.72,8.43 1.49,3.13 2.22,7.6 2.22,13.43l0 43.33c0,1.44 0.29,2.71 0.85,3.83 0.59,1.12 1.42,2.05 2.52,2.76l0 2.22 -31.07 0zm53.44 0l27.53 -40.89 -25.33 -36.93 33.7 0 9.94 18.46 10.28 -18.46 33.7 0 -26.11 36.66 26.99 41.15 -34.44 0 -11.43 -21.54 -10.82 21.54 -34.02 0z"></path> <rect class="fil4" x="273.85" y="218.34" width="186.75" height="5.79"></rect> <rect class="fil0" x="469.27" y="218.34" width="357.76" height="5.79"></rect> <g> <polygon class="fil0" points="402.12,107.82 433.58,107.82 433.58,128.97 402.12,128.97 "></polygon> </g> </g> </g> </svg> 